<?xml version="1.0" encoding="UTF-8"?>
<svg version="1.1" xmlns="http://www.w3.org/2000/svg" width="300" height="300">
<path d="M0 0 C99 0 198 0 300 0 C300 99 300 198 300 300 C201 300 102 300 0 300 C0 201 0 102 0 0 Z " fill="#010101" transform="translate(0,0)"/>
<path d="M0 0 C3.90585252 0.55924707 5.7159322 2.35731412 8.5 5.0625 C13.82957783 9.98880117 19.48126143 14.73107245 26 18 C29.6163289 17.85423626 32.14434681 15.69453614 35.0625 13.6875 C40.48156624 10.15678662 45.83288279 7.88043603 52 6 C53.00933594 5.64164063 54.01867187 5.28328125 55.05859375 4.9140625 C60.36618667 3.42116696 65.84277436 3.6713078 71.3125 3.6875 C72.92801758 3.66333008 72.92801758 3.66333008 74.57617188 3.63867188 C86.33543512 3.63154937 94.78607515 7.02319508 104.7421875 12.94726562 C109.81331407 15.80681755 113.16783153 16.64207359 119 16 C126.62421091 13.42493539 133.3478161 8.60466009 139.8112793 3.89672852 C143.80832998 1 143.80832998 1 146 1 C146.81892485 10.53895797 145.8199773 17.24003027 140 25 C137.76706293 27.38549799 135.68619748 29.08866718 133 31 C132.34 31 131.68 31 131 31 C131.4125 32.11375 131.825 33.2275 132.25 34.375 C132.51941406 35.11492187 132.78882813 35.85484375 133.06640625 36.6171875 C133.95935722 38.99829847 133.95935722 38.99829847 135.08984375 41.1953125 C139.2516927 49.93371421 139.50732946 59.5713891 136.94140625 68.8125 C135.29674037 73.18526151 133.5938323 77.10925156 131 81 C131.25268891 85.12725223 132.18135881 88.55765896 133.53125 92.44921875 C135.38521583 98.5661287 135.4070897 104.40113953 135.3125 110.75 C135.31572266 111.84699219 135.31894531 112.94398438 135.32226562 114.07421875 C135.28636493 119.45932246 135.09402622 123.96526547 133 129 C132.73960937 129.94617188 132.47921875 130.89234375 132.2109375 131.8671875 C128.27944534 146.01321069 121.98238661 158.18278747 112 169 C111.39929688 169.69222656 110.79859375 170.38445312 110.1796875 171.09765625 C100.56172474 181.56916116 86.82748979 189.74647299 73 193 C71.68 193 70.36 193 69 193 C70.38508444 189.77513169 71.90592505 188.00617601 74.625 185.8125 C85.90391639 176.20907482 92.65647204 165.29895085 97.3125 151.3125 C97.65861328 150.31927734 98.00472656 149.32605469 98.36132812 148.30273438 C101.51060128 139.06363868 102.14082545 130.76883065 102.0625 121.0625 C102.05798828 119.99708984 102.05347656 118.93167969 102.04882812 117.83398438 C102.03711787 115.22259709 102.02071724 112.61132876 102 110 C99.55773065 112.37101175 97.74733657 114.77579217 95.875 117.625 C91.08309686 124.55904628 85.53213517 131.00871907 78 135 C77.34 135 76.68 135 76 135 C76 135.66 76 136.32 76 137 C75.32453125 137.26554688 74.6490625 137.53109375 73.953125 137.8046875 C72.61507812 138.33449219 72.61507812 138.33449219 71.25 138.875 C70.36828125 139.22304687 69.4865625 139.57109375 68.578125 139.9296875 C66.06442595 140.89237656 66.06442595 140.89237656 64.171875 142.1328125 C62 143 62 143 54 143 C53.67 131.12 53.34 119.24 53 107 C50.69 106.34 48.38 105.68 46 105 C46 117.87 46 130.74 46 144 C33.60336408 144 33.60336408 144 28.15234375 143.23046875 C26.37827148 142.98006836 26.37827148 142.98006836 24.56835938 142.72460938 C22.77108398 142.45874023 22.77108398 142.45874023 20.9375 142.1875 C19.73544922 142.02185547 18.53339844 141.85621094 17.29492188 141.68554688 C10.30602026 140.67514921 3.68681694 139.28215398 -3 137 C-1.89176064 120.3764096 6.39508347 103.15399088 19 92 C19.66 92 20.32 92 21 92 C18.90398516 88.35817421 16.56580894 85.07388885 14 81.75 C6.60605369 71.48818113 5.66320324 61.43021465 7 49 C8.24082279 43.7745632 10.02690006 39.4596499 13 35 C13.66 35 14.32 35 15 35 C13.21380103 31.63774312 11.1042351 28.92854472 8.5625 26.125 C2.80199255 19.67030878 -0.16652312 13.98794229 -0.0625 5.25 C-0.05347656 4.26515625 -0.04445313 3.2803125 -0.03515625 2.265625 C-0.02355469 1.51796875 -0.01195313 0.7703125 0 0 Z " fill="#F9F6EC" transform="translate(83,55)"/>
<path d="M0 0 C4.55107987 2.01712691 8.75562483 4.39217074 13 7 C13 7.66 13 8.32 13 9 C11.69675781 9.02126953 11.69675781 9.02126953 10.3671875 9.04296875 C2.78797439 9.12172145 2.78797439 9.12172145 -3.75 12.4375 C-7.45831896 16.66086326 -7.33882076 19.68044722 -7.28125 25.1640625 C-6.85416491 29.47050382 -5.67788789 31.59835862 -3 35 C1.94913368 38.16194652 7.85634092 37.43667129 13.375 36.3125 C16.19354704 35.2226255 16.19354704 35.2226255 17.3125 32.5 C17.539375 31.675 17.76625 30.85 18 30 C18.33 29.34 18.66 28.68 19 28 C19.30351789 22.95624681 19.308639 17.90739626 18 13 C22.04161955 14.34484714 24.38678154 16.0505162 27.3125 19.125 C28.00988281 19.84945312 28.70726562 20.57390625 29.42578125 21.3203125 C29.94527344 21.87460938 30.46476562 22.42890625 31 23 C35.41756458 21.08807 38.42362201 17.95434136 41.87890625 14.6796875 C44 13 44 13 47 13 C46.67 13.61875 46.34 14.2375 46 14.875 C44.14767597 20.66351261 43.97082286 25.97840206 46.75 31.4375 C50.15257848 35.58719298 50.15257848 35.58719298 55.04296875 37.28125 C60.06993491 37.48333909 63.75898445 36.92832026 68 34 C69.73490246 31.41556677 69.73490246 31.41556677 71 29 C71.66 29 72.32 29 73 29 C72.5701762 20.14830246 72.5701762 20.14830246 68.4375 12.75 C67.633125 12.1725 66.82875 11.595 66 11 C65.505 10.505 65.505 10.505 65 10 C63.31816052 9.76712992 61.6287584 9.58735834 59.9375 9.4375 C59.01839844 9.35371094 58.09929687 9.26992187 57.15234375 9.18359375 C56.44207031 9.12300781 55.73179687 9.06242187 55 9 C56.23699179 5.28902463 57.16086734 5.04187966 60.5625 3.3125 C65.45806238 1.00788433 68.63658349 0.19548752 74 1 C79.34843827 3.62178347 83.6499366 8.06231508 85.609375 13.77734375 C87.22927037 22.99454838 86.98257477 31.57477501 81.91015625 39.62109375 C77.57029348 45.02595352 71.95753857 49.77219908 65 51 C55.51770846 51.59762342 47.70469984 51.065402 40 45 C34 38.98627002 34 38.98627002 34 35 C30.50440762 36.16519746 30.10924809 37.32838515 28.22265625 40.3125 C24.60692277 45.30290531 19.08119688 49.72305332 13 51 C3.77639665 51.94654994 -4.43961479 51.82986552 -12 46 C-18.13970872 39.99347368 -22.09600174 31.59169633 -22.5 23 C-22.16997547 15.51551505 -19.22678775 8.39012487 -14 3 C-9.51920254 -0.85556991 -5.7229415 -1.10668802 0 0 Z " fill="#0A0909" transform="translate(123,91)"/>
<path d="M0 0 C0.62175432 14.33838212 1.17991616 28.64668852 1 43 C-8.43825698 48.08213837 -17.98418793 51.11457757 -28.6015625 52.60546875 C-31.00539307 52.87931932 -31.00539307 52.87931932 -33 54 C-35.33093612 54.12283119 -37.66586039 54.17554232 -40 54.1875 C-41.8871875 54.20876953 -41.8871875 54.20876953 -43.8125 54.23046875 C-47 54 -47 54 -49 52 C-49.97039408 47.82535162 -50.00364705 44.16899546 -49 40 C-45.84111727 36.28435686 -41.97876424 33.77906052 -38 31 C-36.30902179 29.52746122 -34.64124052 28.02777856 -33 26.5 C-28.70760499 22.58794379 -24.25679354 18.92086277 -19.7421875 15.26953125 C-16.15656857 12.30194635 -12.71713769 9.19014815 -9.2890625 6.04296875 C-2.51816444 0 -2.51816444 0 0 0 Z " fill="#FAF7EC" transform="translate(129,208)"/>
<path d="M0 0 C0.64415308 14.92919483 -8.20403443 29.30552376 -17.5625 40.35546875 C-21.43514548 44.55704085 -25.61932965 48.33735343 -30 52 C-31.29164063 53.11568359 -31.29164063 53.11568359 -32.609375 54.25390625 C-35 56 -35 56 -38 56 C-38 42.8 -38 29.6 -38 16 C-32.72 14.68 -27.44 13.36 -22 12 C-19.03760905 10.73075802 -16.52790817 9.60356284 -13.8125 8 C-13.21115234 7.67 -12.60980469 7.34 -11.99023438 7 C-9.19754757 5.43389305 -6.69704747 3.75662391 -4.19921875 1.75 C-2 0 -2 0 0 0 Z " fill="#F7F4E9" transform="translate(176,190)"/>
<path d="M0 0 C5.36345701 0.59593967 10.67077253 1.20369278 16.00390625 1.97265625 C17.23818359 2.14990234 18.47246094 2.32714844 19.74414062 2.50976562 C21.00419922 2.69216797 22.26425781 2.87457031 23.5625 3.0625 C25.50479492 3.3419043 25.50479492 3.3419043 27.48632812 3.62695312 C30.65773885 4.08335541 33.82895415 4.54107061 37 5 C37 5.99 37 6.98 37 8 C35.19921875 9.69140625 35.19921875 9.69140625 32.6875 11.5625 C28.81461067 14.54080644 25.14922185 17.61952388 21.5625 20.9375 C16.93932507 25.20504609 12.1497643 29.18863683 7.21484375 33.08984375 C4.81532968 34.98687169 4.81532968 34.98687169 3 38 C2.01 38 1.02 38 0 38 C0 25.46 0 12.92 0 0 Z " fill="#F7F4E9" transform="translate(78,201)"/>
<path d="M0 0 C0.66 0 1.32 0 2 0 C2.93427382 2.80282145 3.12860785 4.52306918 3.1328125 7.421875 C3.13410156 8.28296875 3.13539063 9.1440625 3.13671875 10.03125 C3.13285156 10.9284375 3.12898437 11.825625 3.125 12.75 C3.12886719 13.63171875 3.13273438 14.5134375 3.13671875 15.421875 C3.12932749 20.38880085 2.84273053 25.10413693 2 30 C1.67 30 1.34 30 1 30 C1 21.75 1 13.5 1 5 C-1.475 6.485 -1.475 6.485 -4 8 C-2.87548273 5.0280615 -1.77706209 2.66559313 0 0 Z " fill="#6F6E68" transform="translate(183,165)"/>
<path d="M0 0 C-1.08184022 2.52429385 -1.90878163 3.92536679 -4.0625 5.6875 C-6.93121129 9.11144573 -6.81411518 12.6502953 -7 17 C-7.33 17 -7.66 17 -8 17 C-8.91460833 6.38038109 -8.91460833 6.38038109 -6.734375 3.08984375 C-4.58761846 1.30261683 -2.86018641 0 0 0 Z " fill="#D1CFC8" transform="translate(88,243)"/>
<path d="M0 0 C1.32 0.33 2.64 0.66 4 1 C3.34 1.66 2.68 2.32 2 3 C1.75660449 5.89883083 1.75660449 5.89883083 1.875 9.125 C1.89304687 10.22070312 1.91109375 11.31640625 1.9296875 12.4453125 C1.95289062 13.28835937 1.97609375 14.13140625 2 15 C-0.02558881 11.65060119 -0.21738987 9.13037449 -0.125 5.25 C-0.09792969 3.77273437 -0.09792969 3.77273437 -0.0703125 2.265625 C-0.04710938 1.51796875 -0.02390625 0.7703125 0 0 Z " fill="#C2C1BA" transform="translate(83,55)"/>
<path d="M0 0 C0.66 0.33 1.32 0.66 2 1 C-0.97 3.97 -3.94 6.94 -7 10 C-7 7 -7 7 -4.625 4.4375 C-3.75875 3.633125 -2.8925 2.82875 -2 2 C-1.34 1.34 -0.68 0.68 0 0 Z " fill="#36342D" transform="translate(113,91)"/>
<path d="M0 0 C0.66 0 1.32 0 2 0 C2 1.65 2 3.3 2 5 C0 6 -2 7 -4 8 C-2.87548273 5.0280615 -1.77706209 2.66559313 0 0 Z " fill="#4A4943" transform="translate(183,165)"/>
<path d="M0 0 C-1.28519565 2.86697492 -2.57129254 4.97607712 -5 7 C-5.66 7 -6.32 7 -7 7 C-3.86206897 0 -3.86206897 0 0 0 Z " fill="#DCDAD1" transform="translate(123,101)"/>
</svg>
